HIERARCHY
ROOT SpineBase
{
  OFFSET 0.000000 0.000000 0.000000
  CHANNELS 6 Xposition Yposition Zposition Zrotation Xrotation Yrotation
  JOINT SpineMid
  {
    OFFSET 0.000000 31.677784 0.000000
    CHANNELS 3 Zrotation Xrotation Yrotation
    JOINT SpineShoulder
    {
      OFFSET -0.001533 23.524490 -0.832919
      CHANNELS 3 Zrotation Xrotation Yrotation
      JOINT Neck
      {
        OFFSET 0.024109 7.785107 -0.629963
        CHANNELS 3 Zrotation Xrotation Yrotation
        JOINT Head
        {
          OFFSET -5.094751 14.051688 -0.136300
          CHANNELS 3 Zrotation Xrotation Yrotation
          End Site
          {
            OFFSET 0 0 0
          }
        }
      }
      JOINT ShoulderLeft
      {
        OFFSET -16.328866 -6.181230 6.877737
        CHANNELS 3 Zrotation Xrotation Yrotation
        JOINT ElbowLeft
        {
          OFFSET -1.075301 -29.373135 5.547175
          CHANNELS 3 Zrotation Xrotation Yrotation
          JOINT WristLeft
          {
            OFFSET -0.273714 -25.332151 -4.920812
            CHANNELS 3 Zrotation Xrotation Yrotation
            JOINT HandLeft
            {
              OFFSET -0.466606 -4.059006 -0.409083
              CHANNELS 3 Zrotation Xrotation Yrotation
              JOINT HandTipLeft
              {
                OFFSET 0.066672 -5.184279 -0.821941
                CHANNELS 3 Zrotation Xrotation Yrotation
                End Site
                {
                  OFFSET 0 0 0
                }
              }
              JOINT ThumbLeft
              {
                OFFSET -1.946540 -0.878795 -1.139588
                CHANNELS 3 Zrotation Xrotation Yrotation
                End Site
                {
                  OFFSET 0 0 0
                }
              }
            }
          }
        }
      }
      JOINT ShoulderRight
      {
        OFFSET 14.324828 -3.545804 -9.225191
        CHANNELS 3 Zrotation Xrotation Yrotation
        JOINT ElbowRight
        {
          OFFSET 8.202310 -25.860895 -0.864775
          CHANNELS 3 Zrotation Xrotation Yrotation
          JOINT WristRight
          {
            OFFSET -0.119056 -23.815057 -5.545069
            CHANNELS 3 Zrotation Xrotation Yrotation
            JOINT HandRight
            {
              OFFSET -1.807259 -6.103541 -0.765011
              CHANNELS 3 Zrotation Xrotation Yrotation
              JOINT HandTipRight
              {
                OFFSET 0.442615 -6.946947 -0.920596
                CHANNELS 3 Zrotation Xrotation Yrotation
                End Site
                {
                  OFFSET 0 0 0
                }
              }
              JOINT ThumbRight
              {
                OFFSET -3.163215 -1.731893 -1.587939
                CHANNELS 3 Zrotation Xrotation Yrotation
                End Site
                {
                  OFFSET 0 0 0
                }
              }
            }
          }
        }
      }
    }
  }
  JOINT HipLeft
  {
    OFFSET -6.618811 0.228965 -0.904411
    CHANNELS 3 Zrotation Xrotation Yrotation
    JOINT KneeLeft
    {
      OFFSET 3.413480 -34.513410 2.664854
      CHANNELS 3 Zrotation Xrotation Yrotation
      JOINT AnkleLeft
      {
        OFFSET 8.202118 -37.319788 6.426722
        CHANNELS 3 Zrotation Xrotation Yrotation
        JOINT FootLeft
        {
          OFFSET 0.024882 -8.671370 -6.029839
          CHANNELS 3 Zrotation Xrotation Yrotation
          End Site
          {
            OFFSET 0 0 0
          }
        }
      }
    }
  }
  JOINT HipRight
  {
    OFFSET 7.108433 1.560120 -6.350518
    CHANNELS 3 Zrotation Xrotation Yrotation
    JOINT KneeRight
    {
      OFFSET 7.020988 -31.111880 -1.718004
      CHANNELS 3 Zrotation Xrotation Yrotation
      JOINT AnkleRight
      {
        OFFSET 3.670991 -41.076548 8.944126
        CHANNELS 3 Zrotation Xrotation Yrotation
        JOINT FootRight
        {
          OFFSET -3.239580 -9.073281 -1.226226
          CHANNELS 3 Zrotation Xrotation Yrotation
          End Site
          {
            OFFSET 0 0 0
          }
        }
      }
    }
  }
}
MOTION
Frames: 7
Frame Time: 0.033333
-20.979174 83.864422 340.439781 1.417514 0.735471 19.467478 -0.120428 0.086153 -19.432694 -0.317167 0.189694 0.025624 -7.310109 -0.114324 0.104624 0.000000 0.000000 0.000000 -22.886993 53.912656 5.115334 72.123391 39.979404 8.572725 21.093895 -30.574867 46.003430 -7.549246 20.235830 -18.031210 0.000000 0.000000 0.000000 0.000000 0.000000 0.000000 -47.919519 40.157157 36.523712 -89.965379 -19.817712 -74.020047 17.012684 -11.886574 -10.241440 -41.836195 2.743275 15.822947 0.000000 0.000000 0.000000 0.000000 0.000000 0.000000 -5.337562 0.184886 -19.851811 3.670817 0.893377 0.342379 4.934182 12.550222 -3.658438 0.000000 0.000000 0.000000 -4.498594 1.155197 -19.203704 2.287269 -1.042847 -0.516497 -4.248513 32.121122 -8.570688 0.000000 0.000000 0.000000
-20.985220 83.783005 340.403472 1.393999 0.772360 18.983559 -0.120457 0.052912 -18.949140 -0.301176 0.177605 0.026558 -7.617672 -0.028765 0.133466 0.000000 0.000000 0.000000 -22.903339 52.698622 4.844086 75.524385 37.523962 8.921830 13.439484 -18.188966 28.416148 -8.115467 5.652162 -6.618516 0.000000 0.000000 0.000000 0.000000 0.000000 0.000000 -47.407893 39.704212 35.817812 -89.378121 -21.846508 -74.672262 17.411995 -11.402100 -9.593921 -41.326379 1.993717 13.555966 0.000000 0.000000 0.000000 0.000000 0.000000 0.000000 -5.400471 -0.045955 -19.395933 3.690717 1.053620 0.354450 8.288207 11.527813 -6.139819 0.000000 0.000000 0.000000 -4.415785 1.167866 -18.699079 2.237390 -1.234324 -0.546352 -3.809615 35.076437 -9.648449 0.000000 0.000000 0.000000
-20.996474 83.657472 340.357481 1.365191 0.815147 18.647108 -0.130884 0.028301 -18.613868 -0.280296 0.155334 0.027166 -7.772593 0.056797 0.166619 0.000000 0.000000 0.000000 -22.337274 52.476816 4.610454 77.077038 34.103342 10.619207 10.324256 -9.708982 17.897608 -7.784565 -3.225647 0.917216 0.000000 0.000000 0.000000 0.000000 0.000000 0.000000 -47.493925 39.425669 35.634867 -88.950381 -23.345541 -75.635769 16.533723 -9.165178 -7.871233 -36.410791 2.072012 7.521504 0.000000 0.000000 0.000000 0.000000 0.000000 0.000000 -5.434074 -0.249430 -19.083019 3.695548 1.185558 0.363580 10.084173 8.191443 -7.352270 0.000000 0.000000 0.000000 -4.344043 1.155309 -18.349947 2.227581 -1.435080 -0.565456 -3.829085 42.395059 -11.928034 0.000000 0.000000 0.000000
-21.019587 83.647493 340.323350 1.318674 0.846679 18.503257 -0.121839 0.001612 -18.470786 -0.268960 0.142947 0.026931 -7.820816 0.130147 0.197960 0.000000 0.000000 0.000000 -21.149663 51.622225 4.050366 77.855665 32.688775 10.274392 7.718821 -4.905772 11.036572 -5.279488 -8.749331 6.698093 0.000000 0.000000 0.000000 0.000000 0.000000 0.000000 -47.072821 39.224000 35.222690 -88.190386 -24.239453 -75.186729 15.736179 -8.792535 -7.234833 -34.034841 3.044318 6.230673 0.000000 0.000000 0.000000 0.000000 0.000000 0.000000 -5.450865 -0.354990 -18.953994 3.728741 1.247667 0.369913 6.655208 12.407128 -4.943742 0.000000 0.000000 0.000000 -4.241382 1.120468 -18.202983 2.218919 -1.623733 -0.572859 -3.846389 52.137064 -15.079885 0.000000 0.000000 0.000000
-21.042870 83.658574 340.284253 1.278318 0.868673 18.473744 -0.117949 -0.002816 -18.442438 -0.252159 0.127782 0.026893 -7.820723 0.210334 0.235259 0.000000 0.000000 0.000000 -20.156153 51.076540 3.635202 77.492070 31.912886 9.907968 7.342471 -3.918006 9.676252 -1.542787 -9.029002 8.829414 0.000000 0.000000 0.000000 0.000000 0.000000 0.000000 -46.285796 38.693364 34.319263 -87.056035 -25.558265 -74.215255 14.284435 -8.539334 -6.328459 -34.585250 3.513168 7.606639 0.000000 0.000000 0.000000 0.000000 0.000000 0.000000 -5.496278 -0.395036 -18.936220 3.800120 1.276596 0.376522 4.621587 11.012246 -3.400147 0.000000 0.000000 0.000000 -4.151161 1.043614 -18.185188 2.120719 -1.624036 -0.573890 -3.875065 58.489487 -17.187044 0.000000 0.000000 0.000000
-21.074699 83.678302 340.232158 1.226662 0.899846 18.534915 -0.108402 -0.014878 -18.504787 -0.237331 0.112101 0.026516 -7.709565 0.302732 0.280914 0.000000 0.000000 0.000000 -18.613743 50.170599 3.008236 76.689513 32.589682 8.005995 7.370796 -7.686253 13.300246 0.887767 -6.096315 6.933615 0.000000 0.000000 0.000000 0.000000 0.000000 0.000000 -44.614906 38.089991 32.873165 -85.966527 -26.282698 -71.906477 15.808498 -12.359437 -8.449072 -40.084274 4.167787 14.449821 0.000000 0.000000 0.000000 0.000000 0.000000 0.000000 -5.522282 -0.430996 -19.007600 3.862411 1.294226 0.381763 5.530379 9.321489 -4.041622 0.000000 0.000000 0.000000 -4.072312 0.941806 -18.263613 2.054886 -1.612559 -0.567078 -4.004022 57.042656 -16.578726 0.000000 0.000000 0.000000
-21.119994 83.658736 340.160174 1.159661 0.955504 18.544991 -0.092352 -0.039539 -18.516169 -0.216566 0.084825 0.026477 -7.557008 0.386360 0.324127 0.000000 0.000000 0.000000 -16.745227 48.944620 2.278421 75.774656 32.304067 6.350720 8.320191 -9.102825 15.263615 0.889166 -2.803087 3.787769 0.000000 0.000000 0.000000 0.000000 0.000000 0.000000 -42.171372 37.266025 30.873662 -85.261398 -26.847484 -69.086151 17.297269 -17.167038 -10.807253 -43.660228 6.665544 21.685315 0.000000 0.000000 0.000000 0.000000 0.000000 0.000000 -5.511374 -0.552509 -19.032730 3.879315 1.352013 0.386635 7.757028 2.355769 -5.471739 0.000000 0.000000 0.000000 -3.992327 0.775209 -18.301124 1.916123 -1.481020 -0.560242 -4.376881 53.504724 -15.110025 0.000000 0.000000 0.000000
